<svg xmlns="http://www.w3.org/2000/svg" xmlns:xlink="http://www.w3.org/1999/xlink" viewBox="0,0,256,256" width="32px" height="32px" fill-rule="nonzero"><g fill="#ffffff" fill-rule="nonzero" stroke="none" stroke-width="1" stroke-linecap="butt" stroke-linejoin="miter" stroke-miterlimit="10" stroke-dasharray="" stroke-dashoffset="0" font-family="none" font-weight="none" font-size="none" text-anchor="none" style="mix-blend-mode: normal"><g transform="scale(8,8)"><path d="M6,5c-2.19733,0 -4,1.80267 -4,4v15c0,1.64497 1.35503,3 3,3h5v-9.96875l6,4.52148l6,-4.52148v9.96875h5c1.64497,0 3,-1.35503 3,-3v-15c0,-2.19733 -1.80267,-4 -4,-4c-0.89687,0 -1.73685,0.29766 -2.4082,0.79883l-0.00195,0.00195l-7.58984,5.7168l-7.58789,-5.7168v0.00195c-0.6739,-0.50878 -1.5168,-0.80273 -2.41211,-0.80273zM6,7c0.46069,0 0.87693,0.14922 1.20703,0.39844l0.79297,0.59766v5.02344l-4,-3.01367v-1.00586c0,-1.11667 0.88333,-2 2,-2zM26,7c1.11667,0 2,0.88333 2,2v1.00391l-4,3.01367v-5.02344l0.78906,-0.59375c0.33065,-0.24683 0.76181,-0.40039 1.21094,-0.40039zM10,9.50195l6,4.51953l6,-4.51953v5.02344l-6,4.52148l-6,-4.52148zM4,12.50781l4,3.01563v9.47656h-3c-0.56503,0 -1,-0.43497 -1,-1zM28,12.50781v11.49219c0,0.56503 -0.43497,1 -1,1h-3v-9.47656z"></path></g></g></svg>