<svg width="25" height="25" viewBox="0 0 25 25" fill="none" xmlns="http://www.w3.org/2000/svg">
<g clip-path="url(#clip0_1_1416)">
<path d="M23.9551 7.88648L12.9864 0.573976C12.612 0.343585 12.2124 0.341476 11.8346 0.573976L0.865866 7.88648C0.584616 8.07393 0.410522 8.4088 0.410522 8.74358V16.056C0.410522 16.3909 0.584616 16.7257 0.865913 16.9132L11.8347 24.2267C12.2091 24.4571 12.6086 24.4592 12.9864 24.2267L23.9552 16.9132C24.2364 16.7257 24.4106 16.3909 24.4106 16.056V8.74358C24.4105 8.4088 24.2364 8.07393 23.9551 7.88648ZM13.4418 3.35962L21.5177 8.74358L17.915 11.1543L13.4418 8.16768V3.35962ZM11.3793 3.35962V8.16768L6.90604 11.1543L3.30337 8.74358L11.3793 3.35962ZM2.47302 10.6722L5.05785 12.3998L2.47302 14.1275V10.6722ZM11.3793 21.4401L3.30337 16.0561L6.90604 13.6454L11.3793 16.632V21.4401ZM12.4105 14.8373L8.76763 12.3998L12.4105 9.96233L16.0534 12.3998L12.4105 14.8373ZM13.4418 21.4401V16.632L17.915 13.6454L21.5177 16.0561L13.4418 21.4401ZM22.348 14.1275L19.7632 12.3998L22.348 10.6722V14.1275Z" fill="white"/>
</g>
<defs>
<clipPath id="clip0_1_1416">
<rect width="24" height="24" fill="white" transform="translate(0.410522 0.400391)"/>
</clipPath>
</defs>
</svg>
