<svg width="25" height="25" viewBox="0 0 25 25" fill="none" xmlns="http://www.w3.org/2000/svg">
<g clip-path="url(#clip0_1_1410)">
<path d="M8.56208 19.0285C8.56208 19.1223 8.45427 19.1973 8.31833 19.1973C8.16365 19.2113 8.05584 19.1363 8.05584 19.0285C8.05584 18.9348 8.16365 18.8598 8.29959 18.8598C8.44021 18.8457 8.56208 18.9207 8.56208 19.0285ZM7.10427 18.8176C7.07146 18.9113 7.16521 19.0191 7.30584 19.0473C7.42771 19.0941 7.56834 19.0473 7.59646 18.9535C7.62459 18.8598 7.53552 18.752 7.3949 18.7098C7.27302 18.677 7.13708 18.7238 7.10427 18.8176ZM9.17615 18.7379C9.04021 18.7707 8.94646 18.8598 8.96052 18.9676C8.97458 19.0613 9.09646 19.1223 9.23709 19.0895C9.37302 19.0566 9.46677 18.9676 9.45271 18.8738C9.43865 18.7848 9.31209 18.7238 9.17615 18.7379ZM12.2605 0.775391C5.75896 0.775391 0.785522 5.71133 0.785522 12.2129C0.785522 17.4113 4.0574 21.8598 8.73083 23.4254C9.33084 23.5332 9.54177 23.1629 9.54177 22.8582C9.54177 22.5676 9.52771 20.9645 9.52771 19.9801C9.52771 19.9801 6.24646 20.6832 5.5574 18.5832C5.5574 18.5832 5.02302 17.2191 4.25427 16.8676C4.25427 16.8676 3.18083 16.1316 4.32927 16.1457C4.32927 16.1457 5.49646 16.2395 6.13865 17.3551C7.16521 19.1645 8.88552 18.6441 9.55584 18.3348C9.66365 17.5848 9.96834 17.0645 10.3058 16.7551C7.68552 16.4645 5.04177 16.0848 5.04177 11.5754C5.04177 10.2863 5.39802 9.63945 6.14802 8.81445C6.02615 8.50977 5.62771 7.25352 6.2699 5.63164C7.24959 5.32695 9.50427 6.89727 9.50427 6.89727C10.4418 6.63477 11.4496 6.49883 12.448 6.49883C13.4465 6.49883 14.4543 6.63477 15.3918 6.89727C15.3918 6.89727 17.6465 5.32227 18.6261 5.63164C19.2683 7.2582 18.8699 8.50977 18.748 8.81445C19.498 9.64414 19.9574 10.291 19.9574 11.5754C19.9574 16.0988 17.1965 16.4598 14.5761 16.7551C15.0074 17.1254 15.373 17.8285 15.373 18.9301C15.373 20.5098 15.359 22.4645 15.359 22.8488C15.359 23.1535 15.5746 23.5238 16.1699 23.416C20.8574 21.8598 24.0355 17.4113 24.0355 12.2129C24.0355 5.71133 18.7621 0.775391 12.2605 0.775391ZM5.34177 16.9426C5.28083 16.9895 5.2949 17.0973 5.37459 17.1863C5.44958 17.2613 5.5574 17.2941 5.61833 17.2332C5.67927 17.1863 5.66521 17.0785 5.58552 16.9895C5.51052 16.9145 5.40271 16.8816 5.34177 16.9426ZM4.83552 16.5629C4.80271 16.6238 4.84958 16.6988 4.94333 16.7457C5.01833 16.7926 5.11208 16.7785 5.1449 16.7129C5.17771 16.652 5.13083 16.577 5.03708 16.5301C4.94333 16.502 4.86834 16.516 4.83552 16.5629ZM6.35427 18.2316C6.27927 18.2926 6.3074 18.4332 6.41521 18.5223C6.52302 18.6301 6.65896 18.6441 6.7199 18.5691C6.78083 18.5082 6.75271 18.3676 6.65896 18.2785C6.55584 18.1707 6.41521 18.1566 6.35427 18.2316ZM5.8199 17.5426C5.7449 17.5895 5.7449 17.7113 5.8199 17.8191C5.8949 17.927 6.02146 17.9738 6.0824 17.927C6.1574 17.866 6.1574 17.7441 6.0824 17.6363C6.01677 17.5285 5.8949 17.4816 5.8199 17.5426Z" fill="white"/>
</g>
<defs>
<clipPath id="clip0_1_1410">
<rect width="24" height="24" fill="white" transform="translate(0.410522 0.400391)"/>
</clipPath>
</defs>
</svg>
