<svg width="25" height="25" viewBox="0 0 25 25" fill="none" xmlns="http://www.w3.org/2000/svg">
<path d="M21.4105 1.90039H3.40583C2.58083 1.90039 1.91052 2.58008 1.91052 3.41445V21.3863C1.91052 22.2207 2.58083 22.9004 3.40583 22.9004H21.4105C22.2355 22.9004 22.9105 22.2207 22.9105 21.3863V3.41445C22.9105 2.58008 22.2355 1.90039 21.4105 1.90039ZM8.2574 19.9004H5.1449V9.87852H8.26208V19.9004H8.2574ZM6.70115 8.50977C5.70271 8.50977 4.89646 7.69883 4.89646 6.70508C4.89646 5.71133 5.70271 4.90039 6.70115 4.90039C7.6949 4.90039 8.50583 5.71133 8.50583 6.70508C8.50583 7.70352 7.69958 8.50977 6.70115 8.50977ZM19.9246 19.9004H16.8121V15.0254C16.8121 13.8629 16.7886 12.3676 15.1949 12.3676C13.573 12.3676 13.3246 13.6332 13.3246 14.941V19.9004H10.2121V9.87852H13.198V11.2473H13.2402C13.6574 10.4598 14.6746 9.63008 16.1886 9.63008C19.3386 9.63008 19.9246 11.7066 19.9246 14.4066V19.9004Z" fill="white"/>
</svg>
