<svg width="25" height="25" viewBox="0 0 25 25" fill="none" xmlns="http://www.w3.org/2000/svg">
<g clip-path="url(#clip0_1_1412)">
<path d="M12.5811 1.67238C12.3893 1.67589 12.2065 1.75456 12.0721 1.89146C11.9377 2.02836 11.8625 2.21254 11.8625 2.40438V16.3184C11.8625 16.5125 11.9396 16.6987 12.0769 16.836C12.2142 16.9733 12.4004 17.0504 12.5945 17.0504C12.7886 17.0503 12.9747 16.9732 13.112 16.8359C13.2492 16.6986 13.3263 16.5125 13.3263 16.3184V2.40448C13.3263 2.30723 13.3069 2.21096 13.2693 2.12128C13.2317 2.03159 13.1766 1.9503 13.1072 1.88216C13.0379 1.81401 12.9556 1.76037 12.8653 1.72437C12.7749 1.68837 12.6783 1.67063 12.5811 1.67238ZM23.6552 5.84088C23.5598 5.84372 23.466 5.86512 23.3788 5.90388L17.0965 8.70748C16.9679 8.7655 16.8588 8.85939 16.7823 8.97789C16.7057 9.09639 16.665 9.23446 16.665 9.37553C16.665 9.5166 16.7057 9.65467 16.7823 9.77317C16.8588 9.89167 16.9679 9.98557 17.0965 10.0436L23.3788 12.857C23.4729 12.8993 23.5749 12.9214 23.6781 12.9218C23.8459 12.9218 24.0086 12.8642 24.139 12.7586C24.2694 12.653 24.3595 12.5059 24.3944 12.3417C24.4292 12.1776 24.4066 12.0065 24.3303 11.857C24.254 11.7076 24.1287 11.5889 23.9754 11.5208L19.1894 9.37648L23.9754 7.23988C24.1522 7.1603 24.2903 7.01401 24.3596 6.83294C24.4289 6.65188 24.4237 6.45075 24.3452 6.27348C24.2858 6.14128 24.1885 6.02964 24.0657 5.95263C23.9429 5.87563 23.8001 5.83681 23.6552 5.84088ZM1.15619 10.8729C1.04332 10.8707 0.931483 10.8947 0.829424 10.9429C0.727366 10.9912 0.637858 11.0624 0.567905 11.151C0.497953 11.2396 0.449455 11.3432 0.426206 11.4537C0.402956 11.5641 0.405587 11.6785 0.433892 11.7878C2.16989 18.4648 8.20869 23.1288 15.1161 23.1288C15.3102 23.1288 15.4964 23.0517 15.6337 22.9144C15.771 22.7771 15.8481 22.5909 15.8481 22.3968C15.8481 22.2026 15.771 22.0165 15.6337 21.8792C15.4964 21.7419 15.3102 21.6648 15.1161 21.6648C12.0829 21.6658 9.13508 20.6606 6.73443 18.8067C4.33379 16.9527 2.61596 14.3548 1.85009 11.4199C1.80987 11.2655 1.72031 11.1285 1.59505 11.0298C1.46978 10.9311 1.31567 10.8759 1.15619 10.8729Z" fill="white"/>
</g>
<defs>
<clipPath id="clip0_1_1412">
<rect width="24" height="24" fill="white" transform="translate(0.410522 0.400391)"/>
</clipPath>
</defs>
</svg>
